<svg xmlns="http://www.w3.org/2000/svg" width="155.22mm" height="32.48mm" viewBox="0 0 440 92.07"><defs><style>.a{fill:#fff;}</style></defs><title>partner</title><path class="a" d="M71.83,83.05A37,37,0,1,1,91.47,14.57L71.83,46l37-21.34A50.49,50.49,0,0,0,92.07,8.52C83.22,3.3,70.89,0,57.25,0c-19.47,0-36.52,7-46,17.65A42.18,42.18,0,0,0,0,46,42.18,42.18,0,0,0,11.22,74.41C20.73,85,37.57,92,56.7,92s35.91-7,45.48-17.6c.49-.61,1-1.16,1.48-1.76l-1.43-5.39A37.17,37.17,0,0,1,71.83,83.05"/><path class="a" d="M194.37,89.82,178.86,32a21.85,21.85,0,0,0-21.12-16.23A22.27,22.27,0,0,0,150.26,17L116.88,29.2H151.2l5.89,21.89a32.47,32.47,0,0,0-21.23-7.87c-16.12,0-29.15,10.78-29.15,24.15s13,24.15,29.15,24.15a34.74,34.74,0,0,0,28.21-14.41l3.41,12.71h26.89m-47.3-9a13.47,13.47,0,1,1,13.47-13.47A13.46,13.46,0,0,1,147.07,80.79Z"/><path class="a" d="M257.62,15.73A13,13,0,0,0,252,17L230.51,27a13.52,13.52,0,0,0-19-10L185.29,29.26h18.43V89.87h26.95V36a6.71,6.71,0,1,1,13.42,0v53.9h27V29.2a13.41,13.41,0,0,0-13.42-13.47"/><path class="a" d="M426.53,15.73A13.39,13.39,0,0,0,420.8,17L399.41,27a13.52,13.52,0,0,0-19-10L354.2,29.2h18.43V89.81h26.95V35.91a6.74,6.74,0,1,1,13.48,0v53.9H440V29.2a13.46,13.46,0,0,0-13.48-13.47"/><path class="a" d="M358.6,53.9a38.14,38.14,0,1,1-38.11-38.17A38.14,38.14,0,0,1,358.6,53.9M322,27.28a8.4,8.4,0,1,0-16.22,4.35l13.09,48.78a8.4,8.4,0,1,0,16.22-4.35L322,27.28Z"/></svg>